<?xml version="1.0" encoding="utf-8"?>
<svg width="20" height="20" viewBox="0 0 20 20" fill="none" xmlns="http://www.w3.org/2000/svg">
    <path d="M10 20C15.5228 20 20 15.5228 20 10C20 4.47715 15.5228 0 10 0C4.47715 0 0 4.47715 0 10C0 15.5228 4.47715 20 10 20Z" fill="#1AAB9B"/>
    <path d="M9.21262 13C9.00227 13 8.83741 12.8508 8.83741 12.6643V9.98401L5.75043 7.98579V12.6643C5.75043 12.8508 5.58556 13 5.37521 13C5.16487 13 5 12.8508 5 12.6643V7.3357C5 7.1492 5.16487 7 5.37521 7C5.4548 7 5.52871 7.02131 5.59124 7.06394L9.42865 9.5524C9.5253 9.61101 9.58783 9.71226 9.58783 9.82416V12.675C9.58783 12.8508 9.41728 13 9.21262 13Z" fill="white"/>
    <path d="M10.7931 13C10.5828 13 10.4179 12.8508 10.4179 12.6643V9.81883C10.4179 9.71226 10.4804 9.60568 10.5771 9.54707L14.4088 7.06394C14.4714 7.02131 14.5453 7 14.6249 7C14.8068 7 15.0001 7.12789 15.0001 7.3357V12.6643C15.0001 12.8508 14.8352 13 14.6249 13C14.4145 13 14.2496 12.8508 14.2496 12.6643V7.98579L11.1683 9.98401V12.6643C11.1683 12.8508 10.9978 13 10.7931 13Z" fill="white"/>
</svg>
