<?xml version="1.0" encoding="utf-8"?>
<svg width="20" height="20" viewBox="0 0 20 20" fill="none" xmlns="http://www.w3.org/2000/svg">
    <path d="M10 20C15.5228 20 20 15.5228 20 10C20 4.47715 15.5228 0 10 0C4.47715 0 0 4.47715 0 10C0 15.5228 4.47715 20 10 20Z" fill="#2759E7"/>
    <path fill-rule="evenodd" clip-rule="evenodd" d="M9.28443 7.93557C9.28443 8.6808 8.68081 9.28498 7.9362 9.28498C7.19159 9.28498 6.58805 8.6808 6.58805 7.93557C6.58805 7.19034 7.19159 6.58641 7.93612 6.58641C8.68064 6.58641 9.28376 7.19076 9.28511 7.93582H9.28443V7.93557ZM7.93612 6C7.01547 5.99942 6.22176 6.64842 6.03879 7.55156C5.85581 8.4547 6.33407 9.36177 7.1818 9.7204C8.16911 10.1343 9.30567 9.671 9.72036 8.68564C10.0219 7.96909 9.8647 7.14201 9.32115 6.58549H9.86949V6H7.93612ZM12.0661 9.28574C11.3218 9.28574 10.718 8.68163 10.718 7.93632C10.718 7.191 11.3213 6.58691 12.0662 6.58691C12.8111 6.58691 13.4144 7.191 13.4144 7.93632C13.4132 8.6813 12.8099 9.2844 12.0662 9.28565L12.0661 9.28574ZM12.0661 6.00009C10.9981 6.00009 10.1322 6.86667 10.1322 7.93566C10.1322 9.00463 10.9981 9.87122 12.0661 9.87122C13.1341 9.87122 14 9.00463 14 7.93566C14 6.86667 13.1343 6 12.0662 6L12.0661 6.00009ZM7.93612 13.4145C7.19183 13.4145 6.58796 12.8104 6.58796 12.0651C6.58796 11.3198 7.19159 10.7157 7.93612 10.7157C8.68064 10.7157 9.28435 11.3198 9.28435 12.0651C9.2831 12.8097 8.68022 13.4136 7.93612 13.4145ZM7.93612 10.1289C6.86811 10.1289 6.00232 10.9955 6.00232 12.0644C6.00232 13.1334 6.8682 14 7.9362 14C9.0042 14 9.87007 13.1334 9.87007 12.0644C9.87007 10.9955 9.00428 10.1289 7.9362 10.1289H7.93612Z" fill="white"/>
</svg>
