<?xml version="1.0" encoding="utf-8"?>
<svg width="20" height="20" viewBox="0 0 20 20" fill="none" xmlns="http://www.w3.org/2000/svg">
    <path d="M19.7007 12.4191C18.3649 17.7763 12.9384 21.0365 7.58001 19.7006C2.22382 18.365 -1.03684 12.9388 0.29955 7.58198C1.63469 2.22422 7.06121 -1.03637 12.418 0.299246C17.7761 1.63486 21.0364 7.06168 19.7007 12.4191Z" fill="#3C3C3D"/>
    <path d="M14.3538 8.77524C14.5358 7.46179 13.6091 6.7557 12.3419 6.28467L12.753 4.50544L11.7494 4.23553L11.3492 5.96788C11.0853 5.89693 10.8144 5.83 10.5451 5.76368L10.9481 4.01991L9.94509 3.75L9.53375 5.52862C9.31536 5.47494 9.10097 5.42189 8.89287 5.36606L8.89402 5.36051L7.50994 4.98757L7.24296 6.14432C7.24296 6.14432 7.98759 6.32847 7.97187 6.33989C8.37835 6.44939 8.45181 6.73966 8.43952 6.96977L7.97129 8.99671C7.99931 9.00442 8.03562 9.01553 8.07564 9.0328C8.04219 9.02386 8.00646 9.01398 7.96958 9.00442L7.31327 11.8439C7.26353 11.9771 7.13748 12.177 6.85334 12.1011C6.86335 12.1169 6.12385 11.9046 6.12385 11.9046L5.62561 13.1444L6.93166 13.4957C7.17463 13.5614 7.41274 13.6302 7.64714 13.695L7.23181 15.4946L8.23428 15.7645L8.64562 13.984C8.91946 14.0642 9.1853 14.1382 9.44543 14.208L9.03552 15.9801L10.0391 16.25L10.4545 14.4538C12.1659 14.8033 13.4528 14.6623 13.9944 12.992C14.4309 11.6471 13.9727 10.8713 13.0723 10.3654C13.728 10.2022 14.222 9.73673 14.3538 8.77524ZM12.0607 12.2452C11.7505 13.5901 9.65209 12.863 8.97177 12.6807L9.52289 10.2966C10.2032 10.4798 12.3848 10.8426 12.0607 12.2452ZM12.3711 8.7558C12.0881 9.97918 10.3416 9.35762 9.77501 9.20523L10.2747 7.04289C10.8412 7.19527 12.6658 7.47967 12.3711 8.7558Z" fill="white"/>
</svg>
